HIERARCHY
ROOT Hips
{
	OFFSET -3.958830 18.904000 13.208200
	CHANNELS 6 Xposition Yposition Zposition Zrotation Yrotation Xrotation 
	JOINT LHipJoint
	{
		OFFSET 0.000000 0.000000 0.000000
		CHANNELS 3 Zrotation Yrotation Xrotation
		JOINT LeftUpLeg
		{
			OFFSET 1.800000 -1.400000 0.085000
			CHANNELS 3 Zrotation Yrotation Xrotation
			JOINT LeftLeg
			{
				OFFSET 2.215000 -6.000000 0.000000
				CHANNELS 3 Zrotation Yrotation Xrotation
				JOINT LeftFoot
				{
					OFFSET 2.500000 -6.900000 0.000000
					CHANNELS 3 Zrotation Yrotation Xrotation
					JOINT LeftToeBase
					{
						OFFSET 0.200000 -0.500000 1.950000
						CHANNELS 3 Zrotation Yrotation Xrotation
						End Site
						{
							OFFSET 0.000000 0.000000 0.000000
						}
					}
				}
			}
		}
	}
	JOINT RHipJoint
	{
		OFFSET 0.000000 0.000000 0.000000
		CHANNELS 3 Zrotation Yrotation Xrotation
		JOINT RightUpLeg
		{
			OFFSET -1.800000 -1.400000 0.085000
			CHANNELS 3 Zrotation Yrotation Xrotation
			JOINT RightLeg
			{
				OFFSET -2.215000 -6.000000 0.000000
				CHANNELS 3 Zrotation Yrotation Xrotation
				JOINT RightFoot
				{
					OFFSET -2.500000 -6.900000 0.000000
					CHANNELS 3 Zrotation Yrotation Xrotation
					JOINT RightToeBase
					{
						OFFSET -0.200000 -0.500000 1.950000
						CHANNELS 3 Zrotation Yrotation Xrotation
						End Site
						{
							OFFSET 0.000000 0.000000 0.000000
						}
					}
				}
			}
		}
	}
	JOINT LowerBack
	{
		OFFSET 0.000000 0.000000 0.000000
		CHANNELS 3 Zrotation Yrotation Xrotation
		JOINT Spine
		{
			OFFSET -0.087000 1.940000 -0.288900
			CHANNELS 3 Zrotation Yrotation Xrotation
			JOINT Spine1
			{
				OFFSET 0.000000 1.950000 0.060000
				CHANNELS 3 Zrotation Yrotation Xrotation
				JOINT Neck
				{
					OFFSET 0.000000 0.000000 0.000000
					CHANNELS 3 Zrotation Yrotation Xrotation
					JOINT Neck1
					{
						OFFSET 0.000000 1.600000 0.340000
						CHANNELS 3 Zrotation Yrotation Xrotation
						JOINT Head
						{
							OFFSET 0.000000 1.667000 -0.240000
							CHANNELS 3 Zrotation Yrotation Xrotation
							End Site
							{
								OFFSET 0.000000 0.000000 0.000000
							}
						}
					}
				}
				JOINT LeftShoulder
				{
					OFFSET 0.000000 0.000000 0.000000
					CHANNELS 3 Zrotation Yrotation Xrotation
					JOINT LeftArm
					{
						OFFSET 2.700000 1.550000 -0.730000
						CHANNELS 3 Zrotation Yrotation Xrotation
						JOINT LeftForeArm
						{
							OFFSET 5.450000 0.000000 0.000000
							CHANNELS 3 Zrotation Yrotation Xrotation
							JOINT LeftHand
							{
								OFFSET 3.450000 0.000000 0.000000
								CHANNELS 3 Zrotation Yrotation Xrotation
								JOINT LeftHandIndex1
								{
									OFFSET 0.750000 0.000000 0.000000
									CHANNELS 3 Zrotation Yrotation Xrotation
									End Site
									{
										OFFSET 0.000000 0.000000 0.000000
									}
								}
							}
						}
					}
				}
				JOINT RightShoulder
				{
					OFFSET 0.000000 0.000000 0.000000
					CHANNELS 3 Zrotation Yrotation Xrotation
					JOINT RightArm
					{
						OFFSET -2.700000 1.550000 -0.730000
						CHANNELS 3 Zrotation Yrotation Xrotation
						JOINT RightForeArm
						{
							OFFSET -5.450000 0.000000 0.000000
							CHANNELS 3 Zrotation Yrotation Xrotation
							JOINT RightHand
							{
								OFFSET -3.450000 0.000000 0.000000
								CHANNELS 3 Zrotation Yrotation Xrotation
								JOINT RightHandIndex1
								{
									OFFSET -0.750000 0.000000 0.000000
									CHANNELS 3 Zrotation Yrotation Xrotation
									End Site
									{
										OFFSET 0.000000 0.000000 0.000000
									}
								}
							}
						}
					}
				}
			}
		}
	}
}
MOTION
Frames: 6
Frame Time: 0.016667
-0.278010 16.555290 -1.519950 -3.072636 0.489557 3.845175 -14.884551 12.605434 2.402068 13.387084 -1.103692 -12.600799 -2.458082 3.842654 3.925383 -0.536532 4.102416 3.509371 -0.631860 -0.900810 -0.673470 18.586134 -11.193442 2.765463 -7.969208 1.010000 -11.614389 5.338502 -3.816850 3.251238 0.267754 -3.830782 3.323523 -0.270590 1.102450 0.164740 -4.439912 0.296786 -6.602002 11.909802 1.639940 -1.063808 -4.106776 0.764855 5.318750 1.796772 0.487119 -7.201263 0.817292 -1.081377 25.791895 -7.492550 1.487860 14.609670 -16.580479 0.683348 3.368840 -52.293719 6.158812 -7.646245 -27.349656 -21.382522 2.067972 -4.489505 2.977571 -0.063960 0.774240 -0.709610 0.149740 12.907409 -0.786432 2.932121 62.666699 1.043373 -8.343189 15.489556 23.121432 0.215147 2.126098 -1.377119 -0.568070 0.339820 0.585890 0.034700 
-0.274750 16.556230 -1.521240 -3.049194 0.459994 3.805136 -14.887674 12.621485 2.393919 13.266463 -1.098154 -12.606010 -2.279488 3.815873 3.989730 -0.544834 4.092962 3.515147 -0.640140 -0.911380 -0.678440 18.581603 -11.205397 2.758801 -7.975182 1.000668 -11.633393 5.270946 -3.832946 3.409298 0.272083 -3.829399 3.321665 -0.274110 1.109690 0.166050 -4.428517 0.290066 -6.590651 11.792889 1.700876 -1.039060 -3.978510 0.830548 5.484162 1.787926 0.529107 -7.243374 0.880034 -1.140217 25.774600 -7.513600 1.431410 14.626050 -16.242718 0.738288 3.371323 -52.470254 6.022052 -7.633996 -27.992121 -21.572278 2.207358 -4.495610 2.980503 -0.063370 0.778200 -0.713510 0.146890 12.612395 -0.872768 2.983680 62.633519 0.970367 -8.487640 15.962755 23.620766 0.316432 2.118112 -1.380564 -0.572910 0.343720 0.594060 0.034340 
-0.270100 16.559340 -1.523970 -2.923080 0.493199 3.735687 -14.892568 12.644583 2.394342 13.047787 -1.103322 -12.655570 -2.184537 3.798563 4.071834 -0.552923 4.076228 3.522751 -0.645300 -0.921030 -0.678710 18.573154 -11.212456 2.751802 -8.075095 0.983516 -11.648822 5.230939 -3.854774 3.560347 0.274719 -3.824377 3.324542 -0.279000 1.110570 0.163470 -4.409893 0.256091 -6.590454 11.598672 1.737527 -0.933987 -3.893495 0.895833 5.589394 1.768326 0.560067 -7.327112 0.893474 -1.181796 25.927709 -7.506660 1.378850 14.677950 -16.159479 0.639833 3.446440 -52.204272 6.194063 -7.754578 -29.201731 -22.181916 2.512632 -4.488216 2.987964 -0.056050 0.776480 -0.713480 0.144860 12.582317 -0.797550 3.077656 62.336939 0.634852 -8.710531 16.473873 23.779810 0.401183 2.113868 -1.376453 -0.578420 0.348170 0.597910 0.031090 
-0.264570 16.561710 -1.526810 -2.814870 0.626566 3.641583 -14.896267 12.660919 2.402507 12.917146 -1.110394 -12.697582 -2.225514 3.802457 4.107082 -0.556790 4.072960 3.526112 -0.644980 -0.923230 -0.675570 18.566606 -11.216497 2.739463 -8.171072 0.957391 -11.633633 5.213260 -3.888514 3.764678 0.274422 -3.825011 3.325549 -0.280040 1.110490 0.163490 -4.396662 0.220280 -6.593136 11.505579 1.685045 -0.814380 -3.966557 0.873282 5.760132 1.771517 0.574345 -7.405117 0.887438 -1.253963 25.985378 -7.581200 1.342590 14.632110 -16.059204 0.594215 3.514488 -51.602721 6.450856 -7.847269 -31.071719 -23.096376 3.033951 -4.477203 3.007320 -0.051120 0.776060 -0.711340 0.145530 12.480647 -0.795770 3.184089 61.991875 0.275057 -8.991090 17.484102 24.430446 0.601787 2.104589 -1.383759 -0.580840 0.351610 0.597130 0.029110 
-0.259810 16.564980 -1.528030 -2.665368 0.575349 3.485831 -14.900544 12.684910 2.413734 12.761710 -1.094064 -12.583901 -2.391202 3.842025 4.179049 -0.549763 4.072816 3.523059 -0.644620 -0.922300 -0.672270 18.556967 -11.220145 2.729168 -8.344481 0.919542 -11.606357 5.229747 -3.928291 3.957237 0.269426 -3.817693 3.326962 -0.285100 1.098400 0.158880 -4.376132 0.173215 -6.603552 11.314367 1.659277 -0.666252 -3.986946 0.890320 5.966320 1.772435 0.556623 -7.572091 0.790190 -1.232327 26.362185 -7.500920 1.324000 14.573650 -15.885991 0.456200 3.664177 -51.175218 6.783237 -8.039378 -32.850156 -24.145188 3.590350 -4.451979 3.024175 -0.039800 0.763250 -0.700010 0.143580 12.315669 -0.647021 3.377531 61.553819 -0.099994 -9.311012 18.769241 25.283445 0.893759 2.100953 -1.387808 -0.578660 0.352270 0.594500 0.027570 
-0.254130 16.568750 -1.529380 -2.525907 0.479113 3.315423 -14.905151 12.711487 2.425359 12.624874 -1.075326 -12.478313 -2.577816 3.891126 4.282010 -0.545435 4.077249 3.518748 -0.642070 -0.919860 -0.664840 18.547034 -11.222307 2.718607 -8.512141 0.876000 -11.525266 5.199343 -3.961074 4.113536 0.261873 -3.809967 3.330206 -0.288790 1.086010 0.153600 -4.354092 0.118789 -6.614026 11.131732 1.637281 -0.499104 -3.895896 0.901652 6.034890 1.761231 0.518267 -7.657278 0.650788 -1.079563 26.852566 -7.436920 1.444030 14.449400 -15.886077 0.470051 3.770381 -50.688864 7.275494 -8.252737 -34.803752 -25.371420 4.263509 -4.426722 3.036485 -0.024130 0.750170 -0.686490 0.141970 12.350310 -0.632256 3.446887 60.799860 -0.477165 -9.409315 19.882389 25.360922 1.128025 2.103395 -1.380722 -0.578840 0.356340 0.590550 0.023740 
